<svg width="16" height="13" viewBox="0 0 16 13" fill="none" xmlns="http://www.w3.org/2000/svg">
<path d="M8 9.64877C8.85094 9.64877 9.57303 9.35214 10.1663 8.75888C10.7596 8.16562 11.0562 7.44352 11.0562 6.59259C11.0562 5.74165 10.7596 5.01955 10.1663 4.4263C9.57303 3.83304 8.85094 3.53641 8 3.53641C7.14906 3.53641 6.42697 3.83304 5.83371 4.4263C5.24045 5.01955 4.94382 5.74165 4.94382 6.59259C4.94382 7.44352 5.24045 8.16562 5.83371 8.75888C6.42697 9.35214 7.14906 9.64877 8 9.64877ZM8 8.44427C7.48464 8.44427 7.04719 8.2645 6.68764 7.90495C6.32809 7.5454 6.14831 7.10794 6.14831 6.59259C6.14831 6.07723 6.32809 5.63978 6.68764 5.28023C7.04719 4.92068 7.48464 4.7409 8 4.7409C8.51536 4.7409 8.95281 4.92068 9.31236 5.28023C9.67191 5.63978 9.85169 6.07723 9.85169 6.59259C9.85169 7.10794 9.67191 7.5454 9.31236 7.90495C8.95281 8.2645 8.51536 8.44427 8 8.44427ZM8 12.2196C6.31011 12.2196 4.77004 11.7551 3.37978 10.8263C1.98951 9.89746 0.904869 8.68397 0.125843 7.18585C0.0898876 7.10195 0.0599251 7.00907 0.0359551 6.9072C0.011985 6.80532 0 6.70045 0 6.59259C0 6.48472 0.011985 6.37686 0.0359551 6.26899C0.0599251 6.16113 0.0898876 6.07124 0.125843 5.99933C0.904869 4.5012 1.98951 3.28772 3.37978 2.35888C4.77004 1.43004 6.31011 0.965622 8 0.965622C9.68989 0.965622 11.23 1.43004 12.6202 2.35888C14.0105 3.28772 15.0951 4.5012 15.8742 5.99933C15.9101 6.07124 15.9401 6.16113 15.964 6.26899C15.988 6.37686 16 6.48472 16 6.59259C16 6.70045 15.988 6.80532 15.964 6.9072C15.9401 7.00907 15.9101 7.10195 15.8742 7.18585C15.0951 8.68397 14.0105 9.89746 12.6202 10.8263C11.23 11.7551 9.68989 12.2196 8 12.2196ZM8 10.9072C9.45019 10.9072 10.7805 10.5147 11.991 9.72967C13.2015 8.94465 14.1243 7.89896 14.7596 6.59259C14.1243 5.28622 13.2015 4.24053 11.991 3.45551C10.7805 2.67049 9.45019 2.27798 8 2.27798C6.54981 2.27798 5.21948 2.67049 4.00899 3.45551C2.7985 4.24053 1.86966 5.28622 1.22247 6.59259C1.86966 7.89896 2.7985 8.94465 4.00899 9.72967C5.21948 10.5147 6.54981 10.9072 8 10.9072Z" fill="#B8BABC"/>
</svg>
